<mxfile host="app.diagrams.net" modified="2024-06-13T07:59:18.112Z" agent="Mozilla/5.0 (Macintosh; Intel Mac OS X 10_15_7) AppleWebKit/537.36 (KHTML, like Gecko) Chrome/123.0.0.0 Safari/537.36" version="24.4.7" etag="z54PTbSixO_AmoCC3DKp" type="github">
  <diagram name="Page-1" id="COZJE97PpIa6Mo4k4-fk">
    <mxGraphModel>
      <root>
        <mxCell id="0" />
        <mxCell id="1" parent="0" />
      </root>
    </mxGraphModel>
  </diagram>
</mxfile>
